<mxfile host="65bd71144e">
    <diagram id="C5RBs43oDa-KdzZeNtuy" name="Page-1">
        <mxGraphModel dx="529" dy="395" grid="1" gridSize="10" guides="1" tooltips="1" connect="1" arrows="1" fold="1" page="1" pageScale="1" pageWidth="827" pageHeight="1169" background="none" math="0" shadow="0">
            <root>
                <mxCell id="WIyWlLk6GJQsqaUBKTNV-0"/>
                <mxCell id="WIyWlLk6GJQsqaUBKTNV-1" parent="WIyWlLk6GJQsqaUBKTNV-0"/>
                <mxCell id="HzceF_smoYufTgFCP2HE-6" style="edgeStyle=orthogonalEdgeStyle;rounded=0;orthogonalLoop=1;jettySize=auto;html=1;labelBackgroundColor=#050505;" parent="WIyWlLk6GJQsqaUBKTNV-1" source="HzceF_smoYufTgFCP2HE-0" target="HzceF_smoYufTgFCP2HE-4" edge="1">
                    <mxGeometry relative="1" as="geometry"/>
                </mxCell>
                <mxCell id="HzceF_smoYufTgFCP2HE-0" value="" style="strokeWidth=2;html=1;shape=mxgraph.flowchart.start_2;whiteSpace=wrap;fillColor=#080808;labelBackgroundColor=#050505;strokeColor=none;" parent="WIyWlLk6GJQsqaUBKTNV-1" vertex="1">
                    <mxGeometry x="130.01" y="20" width="30" height="30" as="geometry"/>
                </mxCell>
                <mxCell id="HzceF_smoYufTgFCP2HE-8" style="edgeStyle=orthogonalEdgeStyle;rounded=0;orthogonalLoop=1;jettySize=auto;html=1;entryX=0.5;entryY=0;entryDx=0;entryDy=0;entryPerimeter=0;labelBackgroundColor=#050505;" parent="WIyWlLk6GJQsqaUBKTNV-1" source="HzceF_smoYufTgFCP2HE-4" target="HzceF_smoYufTgFCP2HE-7" edge="1">
                    <mxGeometry relative="1" as="geometry"/>
                </mxCell>
                <mxCell id="HzceF_smoYufTgFCP2HE-4" value="Software Architekt erstellt Fachfeinkonzept " style="rounded=1;whiteSpace=wrap;html=1;absoluteArcSize=1;arcSize=14;strokeWidth=2;fillColor=#FCFCFC;labelBackgroundColor=#050505;" parent="WIyWlLk6GJQsqaUBKTNV-1" vertex="1">
                    <mxGeometry x="92.51" y="90" width="105" height="50" as="geometry"/>
                </mxCell>
                <mxCell id="HzceF_smoYufTgFCP2HE-11" value="" style="edgeStyle=orthogonalEdgeStyle;rounded=0;orthogonalLoop=1;jettySize=auto;html=1;labelBackgroundColor=#050505;" parent="WIyWlLk6GJQsqaUBKTNV-1" source="HzceF_smoYufTgFCP2HE-7" target="HzceF_smoYufTgFCP2HE-10" edge="1">
                    <mxGeometry relative="1" as="geometry"/>
                </mxCell>
                <mxCell id="HzceF_smoYufTgFCP2HE-7" value="" style="strokeWidth=2;html=1;shape=mxgraph.flowchart.decision;whiteSpace=wrap;fillColor=#FCFCFC;labelBackgroundColor=#050505;" parent="WIyWlLk6GJQsqaUBKTNV-1" vertex="1">
                    <mxGeometry x="95.01" y="190" width="100" height="100" as="geometry"/>
                </mxCell>
                <mxCell id="HzceF_smoYufTgFCP2HE-13" value="" style="edgeStyle=orthogonalEdgeStyle;rounded=0;orthogonalLoop=1;jettySize=auto;html=1;labelBackgroundColor=#050505;" parent="WIyWlLk6GJQsqaUBKTNV-1" source="HzceF_smoYufTgFCP2HE-10" target="HzceF_smoYufTgFCP2HE-12" edge="1">
                    <mxGeometry relative="1" as="geometry"/>
                </mxCell>
                <mxCell id="HzceF_smoYufTgFCP2HE-10" value="FK an PMO 端bergeben" style="whiteSpace=wrap;html=1;strokeWidth=2;fillColor=#FCFCFC;rounded=1;labelBackgroundColor=#050505;" parent="WIyWlLk6GJQsqaUBKTNV-1" vertex="1">
                    <mxGeometry x="290" y="215" width="75" height="50" as="geometry"/>
                </mxCell>
                <mxCell id="HzceF_smoYufTgFCP2HE-15" value="" style="edgeStyle=orthogonalEdgeStyle;rounded=0;orthogonalLoop=1;jettySize=auto;html=1;labelBackgroundColor=#050505;" parent="WIyWlLk6GJQsqaUBKTNV-1" source="HzceF_smoYufTgFCP2HE-12" target="HzceF_smoYufTgFCP2HE-14" edge="1">
                    <mxGeometry relative="1" as="geometry"/>
                </mxCell>
                <mxCell id="HzceF_smoYufTgFCP2HE-12" value="PMO berreitet FK auf" style="whiteSpace=wrap;html=1;rounded=1;strokeWidth=2;fillColor=#FCFCFC;labelBackgroundColor=#050505;" parent="WIyWlLk6GJQsqaUBKTNV-1" vertex="1">
                    <mxGeometry x="390" y="215" width="82.5" height="50" as="geometry"/>
                </mxCell>
                <mxCell id="HzceF_smoYufTgFCP2HE-17" value="" style="edgeStyle=orthogonalEdgeStyle;rounded=0;orthogonalLoop=1;jettySize=auto;html=1;labelBackgroundColor=#050505;" parent="WIyWlLk6GJQsqaUBKTNV-1" source="HzceF_smoYufTgFCP2HE-14" target="HzceF_smoYufTgFCP2HE-16" edge="1">
                    <mxGeometry relative="1" as="geometry"/>
                </mxCell>
                <mxCell id="HzceF_smoYufTgFCP2HE-14" value="PMO legt FK im Sharpoint ab" style="whiteSpace=wrap;html=1;rounded=1;strokeWidth=2;fillColor=#FCFCFC;labelBackgroundColor=#050505;" parent="WIyWlLk6GJQsqaUBKTNV-1" vertex="1">
                    <mxGeometry x="500" y="220" width="86.25" height="40" as="geometry"/>
                </mxCell>
                <mxCell id="HzceF_smoYufTgFCP2HE-22" style="edgeStyle=orthogonalEdgeStyle;rounded=0;orthogonalLoop=1;jettySize=auto;html=1;entryX=0.5;entryY=0.5;entryDx=0;entryDy=0;entryPerimeter=0;labelBackgroundColor=#050505;" parent="WIyWlLk6GJQsqaUBKTNV-1" source="HzceF_smoYufTgFCP2HE-16" target="HzceF_smoYufTgFCP2HE-21" edge="1">
                    <mxGeometry relative="1" as="geometry"/>
                </mxCell>
                <mxCell id="HzceF_smoYufTgFCP2HE-16" value="Stakeholder werden f端r Review benachrichtig" style="whiteSpace=wrap;html=1;rounded=1;strokeWidth=2;fillColor=#FCFCFC;labelBackgroundColor=#050505;" parent="WIyWlLk6GJQsqaUBKTNV-1" vertex="1">
                    <mxGeometry x="609.995" y="210" width="120" height="60" as="geometry"/>
                </mxCell>
                <mxCell id="HzceF_smoYufTgFCP2HE-21" value="" style="line;strokeWidth=5;direction=south;html=1;rounded=1;fillColor=#FCFCFC;rotation=90;labelBackgroundColor=#050505;" parent="WIyWlLk6GJQsqaUBKTNV-1" vertex="1">
                    <mxGeometry x="642.49" y="117.5" width="10" height="385" as="geometry"/>
                </mxCell>
                <mxCell id="HzceF_smoYufTgFCP2HE-34" value="" style="edgeStyle=orthogonalEdgeStyle;rounded=0;orthogonalLoop=1;jettySize=auto;html=1;labelBackgroundColor=#050505;" parent="WIyWlLk6GJQsqaUBKTNV-1" source="HzceF_smoYufTgFCP2HE-24" target="HzceF_smoYufTgFCP2HE-33" edge="1">
                    <mxGeometry relative="1" as="geometry"/>
                </mxCell>
                <mxCell id="HzceF_smoYufTgFCP2HE-24" value="Kunde Reviewt FK" style="whiteSpace=wrap;html=1;rounded=1;verticalAlign=top;strokeWidth=3;fillColor=#FCFCFC;labelBackgroundColor=#050505;spacingTop=8;" parent="WIyWlLk6GJQsqaUBKTNV-1" vertex="1">
                    <mxGeometry x="600" y="350" width="110.01" height="40" as="geometry"/>
                </mxCell>
                <mxCell id="HzceF_smoYufTgFCP2HE-32" value="" style="edgeStyle=orthogonalEdgeStyle;rounded=0;orthogonalLoop=1;jettySize=auto;html=1;labelBackgroundColor=#050505;" parent="WIyWlLk6GJQsqaUBKTNV-1" source="HzceF_smoYufTgFCP2HE-26" target="HzceF_smoYufTgFCP2HE-31" edge="1">
                    <mxGeometry relative="1" as="geometry"/>
                </mxCell>
                <mxCell id="HzceF_smoYufTgFCP2HE-26" value="IT-Leiter Reviewt FK" style="whiteSpace=wrap;html=1;rounded=1;verticalAlign=top;strokeWidth=3;fillColor=#FCFCFC;labelBackgroundColor=#050505;spacingTop=8;" parent="WIyWlLk6GJQsqaUBKTNV-1" vertex="1">
                    <mxGeometry x="466.25" y="350" width="113.75" height="40" as="geometry"/>
                </mxCell>
                <mxCell id="HzceF_smoYufTgFCP2HE-36" value="" style="edgeStyle=orthogonalEdgeStyle;rounded=0;orthogonalLoop=1;jettySize=auto;html=1;labelBackgroundColor=#050505;" parent="WIyWlLk6GJQsqaUBKTNV-1" source="HzceF_smoYufTgFCP2HE-28" target="HzceF_smoYufTgFCP2HE-35" edge="1">
                    <mxGeometry relative="1" as="geometry"/>
                </mxCell>
                <mxCell id="HzceF_smoYufTgFCP2HE-28" value="Projektleitung Reviewt FK" style="whiteSpace=wrap;html=1;rounded=1;verticalAlign=top;strokeWidth=3;fillColor=#FCFCFC;labelBackgroundColor=#050505;spacingTop=8;" parent="WIyWlLk6GJQsqaUBKTNV-1" vertex="1">
                    <mxGeometry x="729.99" y="340" width="110" height="50" as="geometry"/>
                </mxCell>
                <mxCell id="HzceF_smoYufTgFCP2HE-44" style="edgeStyle=orthogonalEdgeStyle;rounded=0;orthogonalLoop=1;jettySize=auto;html=1;entryX=0.75;entryY=0.5;entryDx=0;entryDy=0;entryPerimeter=0;labelBackgroundColor=#050505;" parent="WIyWlLk6GJQsqaUBKTNV-1" source="HzceF_smoYufTgFCP2HE-31" target="HzceF_smoYufTgFCP2HE-43" edge="1">
                    <mxGeometry relative="1" as="geometry"/>
                </mxCell>
                <mxCell id="HzceF_smoYufTgFCP2HE-31" value="Kritik vom IT-Leiter 端bergeben" style="whiteSpace=wrap;html=1;rounded=1;verticalAlign=top;strokeWidth=3;fillColor=#FCFCFC;labelBackgroundColor=#050505;spacingTop=8;" parent="WIyWlLk6GJQsqaUBKTNV-1" vertex="1">
                    <mxGeometry x="463.125" y="425" width="120" height="60" as="geometry"/>
                </mxCell>
                <mxCell id="HzceF_smoYufTgFCP2HE-45" style="edgeStyle=orthogonalEdgeStyle;rounded=0;orthogonalLoop=1;jettySize=auto;html=1;entryX=0.476;entryY=0.37;entryDx=0;entryDy=0;entryPerimeter=0;labelBackgroundColor=#050505;" parent="WIyWlLk6GJQsqaUBKTNV-1" source="HzceF_smoYufTgFCP2HE-33" target="HzceF_smoYufTgFCP2HE-43" edge="1">
                    <mxGeometry relative="1" as="geometry"/>
                </mxCell>
                <mxCell id="HzceF_smoYufTgFCP2HE-33" value="Kritik vom Kunden 端bergeben" style="whiteSpace=wrap;html=1;rounded=1;verticalAlign=top;strokeWidth=3;fillColor=#FCFCFC;labelBackgroundColor=#050505;spacingTop=8;" parent="WIyWlLk6GJQsqaUBKTNV-1" vertex="1">
                    <mxGeometry x="595.005" y="422.5" width="120" height="60" as="geometry"/>
                </mxCell>
                <mxCell id="HzceF_smoYufTgFCP2HE-46" style="edgeStyle=orthogonalEdgeStyle;rounded=0;orthogonalLoop=1;jettySize=auto;html=1;entryX=0.142;entryY=0.49;entryDx=0;entryDy=0;entryPerimeter=0;labelBackgroundColor=#050505;" parent="WIyWlLk6GJQsqaUBKTNV-1" source="HzceF_smoYufTgFCP2HE-35" target="HzceF_smoYufTgFCP2HE-43" edge="1">
                    <mxGeometry relative="1" as="geometry"/>
                </mxCell>
                <mxCell id="HzceF_smoYufTgFCP2HE-35" value="Kritik vom Projektleitung 端bergeben" style="whiteSpace=wrap;html=1;rounded=1;verticalAlign=top;strokeWidth=3;fillColor=#FCFCFC;labelBackgroundColor=#050505;spacingTop=8;" parent="WIyWlLk6GJQsqaUBKTNV-1" vertex="1">
                    <mxGeometry x="722.49" y="420" width="125.01" height="65" as="geometry"/>
                </mxCell>
                <mxCell id="HzceF_smoYufTgFCP2HE-40" value="" style="endArrow=classic;html=1;rounded=0;exitX=0.75;exitY=0.5;exitDx=0;exitDy=0;exitPerimeter=0;entryX=0.5;entryY=0;entryDx=0;entryDy=0;labelBackgroundColor=#050505;" parent="WIyWlLk6GJQsqaUBKTNV-1" source="HzceF_smoYufTgFCP2HE-21" target="HzceF_smoYufTgFCP2HE-26" edge="1">
                    <mxGeometry width="50" height="50" relative="1" as="geometry">
                        <mxPoint x="610" y="450" as="sourcePoint"/>
                        <mxPoint x="660" y="400" as="targetPoint"/>
                    </mxGeometry>
                </mxCell>
                <mxCell id="HzceF_smoYufTgFCP2HE-41" value="" style="endArrow=classic;html=1;rounded=0;exitX=0.497;exitY=0.48;exitDx=0;exitDy=0;exitPerimeter=0;entryX=0.465;entryY=-0.025;entryDx=0;entryDy=0;entryPerimeter=0;labelBackgroundColor=#050505;" parent="WIyWlLk6GJQsqaUBKTNV-1" source="HzceF_smoYufTgFCP2HE-21" target="HzceF_smoYufTgFCP2HE-24" edge="1">
                    <mxGeometry width="50" height="50" relative="1" as="geometry">
                        <mxPoint x="610" y="450" as="sourcePoint"/>
                        <mxPoint x="660" y="400" as="targetPoint"/>
                    </mxGeometry>
                </mxCell>
                <mxCell id="HzceF_smoYufTgFCP2HE-42" value="" style="endArrow=classic;html=1;rounded=0;exitX=0.25;exitY=0.5;exitDx=0;exitDy=0;exitPerimeter=0;entryX=0.5;entryY=0;entryDx=0;entryDy=0;labelBackgroundColor=#050505;" parent="WIyWlLk6GJQsqaUBKTNV-1" source="HzceF_smoYufTgFCP2HE-21" target="HzceF_smoYufTgFCP2HE-28" edge="1">
                    <mxGeometry width="50" height="50" relative="1" as="geometry">
                        <mxPoint x="610" y="450" as="sourcePoint"/>
                        <mxPoint x="660" y="400" as="targetPoint"/>
                    </mxGeometry>
                </mxCell>
                <mxCell id="HzceF_smoYufTgFCP2HE-48" value="" style="edgeStyle=orthogonalEdgeStyle;rounded=0;orthogonalLoop=1;jettySize=auto;html=1;exitX=0.502;exitY=0.53;exitDx=0;exitDy=0;exitPerimeter=0;labelBackgroundColor=#050505;" parent="WIyWlLk6GJQsqaUBKTNV-1" source="HzceF_smoYufTgFCP2HE-43" target="HzceF_smoYufTgFCP2HE-47" edge="1">
                    <mxGeometry relative="1" as="geometry"/>
                </mxCell>
                <mxCell id="HzceF_smoYufTgFCP2HE-43" value="" style="line;strokeWidth=5;direction=south;html=1;rounded=1;fillColor=#FCFCFC;rotation=90;labelBackgroundColor=#050505;" parent="WIyWlLk6GJQsqaUBKTNV-1" vertex="1">
                    <mxGeometry x="642.49" y="330" width="10" height="385" as="geometry"/>
                </mxCell>
                <mxCell id="HzceF_smoYufTgFCP2HE-51" value="" style="edgeStyle=orthogonalEdgeStyle;rounded=0;orthogonalLoop=1;jettySize=auto;html=1;labelBackgroundColor=#050505;" parent="WIyWlLk6GJQsqaUBKTNV-1" source="HzceF_smoYufTgFCP2HE-47" target="HzceF_smoYufTgFCP2HE-50" edge="1">
                    <mxGeometry relative="1" as="geometry"/>
                </mxCell>
                <mxCell id="HzceF_smoYufTgFCP2HE-47" value="PMO bereitet Kritki auf" style="whiteSpace=wrap;html=1;rounded=1;verticalAlign=top;strokeWidth=3;fillColor=#FCFCFC;labelBackgroundColor=#050505;spacingTop=8;" parent="WIyWlLk6GJQsqaUBKTNV-1" vertex="1">
                    <mxGeometry x="591.24" y="560" width="112.51" height="50" as="geometry"/>
                </mxCell>
                <mxCell id="HzceF_smoYufTgFCP2HE-53" value="" style="edgeStyle=orthogonalEdgeStyle;rounded=0;orthogonalLoop=1;jettySize=auto;html=1;labelBackgroundColor=#050505;" parent="WIyWlLk6GJQsqaUBKTNV-1" source="HzceF_smoYufTgFCP2HE-50" target="HzceF_smoYufTgFCP2HE-52" edge="1">
                    <mxGeometry relative="1" as="geometry"/>
                </mxCell>
                <mxCell id="HzceF_smoYufTgFCP2HE-50" value="PMO erstellt Gesamte Bewertung" style="whiteSpace=wrap;html=1;rounded=1;verticalAlign=top;strokeWidth=3;fillColor=#FCFCFC;labelBackgroundColor=#050505;spacingTop=8;" parent="WIyWlLk6GJQsqaUBKTNV-1" vertex="1">
                    <mxGeometry x="578.74" y="650" width="137.51" height="50" as="geometry"/>
                </mxCell>
                <mxCell id="HzceF_smoYufTgFCP2HE-55" value="" style="edgeStyle=orthogonalEdgeStyle;rounded=0;orthogonalLoop=1;jettySize=auto;html=1;labelBackgroundColor=#050505;" parent="WIyWlLk6GJQsqaUBKTNV-1" source="HzceF_smoYufTgFCP2HE-52" target="HzceF_smoYufTgFCP2HE-54" edge="1">
                    <mxGeometry relative="1" as="geometry"/>
                </mxCell>
                <mxCell id="HzceF_smoYufTgFCP2HE-56" value="&lt;div&gt;[Kritischer Fehler &lt;br&gt;&lt;/div&gt;&lt;div&gt;vorhanden]&lt;/div&gt;" style="edgeLabel;html=1;align=center;verticalAlign=middle;resizable=0;points=[];labelBackgroundColor=#050505;" parent="HzceF_smoYufTgFCP2HE-55" vertex="1" connectable="0">
                    <mxGeometry x="-0.3282" relative="1" as="geometry">
                        <mxPoint x="-3" y="-15" as="offset"/>
                    </mxGeometry>
                </mxCell>
                <mxCell id="HzceF_smoYufTgFCP2HE-60" value="" style="edgeStyle=orthogonalEdgeStyle;rounded=0;orthogonalLoop=1;jettySize=auto;html=1;labelBackgroundColor=#050505;" parent="WIyWlLk6GJQsqaUBKTNV-1" source="HzceF_smoYufTgFCP2HE-52" target="HzceF_smoYufTgFCP2HE-59" edge="1">
                    <mxGeometry relative="1" as="geometry"/>
                </mxCell>
                <mxCell id="HzceF_smoYufTgFCP2HE-63" style="edgeStyle=orthogonalEdgeStyle;rounded=0;orthogonalLoop=1;jettySize=auto;html=1;entryX=1;entryY=0.5;entryDx=0;entryDy=0;labelBackgroundColor=#050505;" parent="WIyWlLk6GJQsqaUBKTNV-1" source="HzceF_smoYufTgFCP2HE-52" target="HzceF_smoYufTgFCP2HE-61" edge="1">
                    <mxGeometry relative="1" as="geometry">
                        <Array as="points">
                            <mxPoint x="750" y="805"/>
                            <mxPoint x="750" y="1020"/>
                        </Array>
                    </mxGeometry>
                </mxCell>
                <mxCell id="HzceF_smoYufTgFCP2HE-52" value="" style="rhombus;whiteSpace=wrap;html=1;rounded=0;verticalAlign=top;strokeWidth=3;fillColor=#FCFCFC;labelBackgroundColor=#050505;spacingTop=8;" parent="WIyWlLk6GJQsqaUBKTNV-1" vertex="1">
                    <mxGeometry x="607.495" y="765" width="80" height="80" as="geometry"/>
                </mxCell>
                <mxCell id="HzceF_smoYufTgFCP2HE-65" value="" style="edgeStyle=orthogonalEdgeStyle;rounded=0;orthogonalLoop=1;jettySize=auto;html=1;labelBackgroundColor=#050505;" parent="WIyWlLk6GJQsqaUBKTNV-1" source="HzceF_smoYufTgFCP2HE-54" target="HzceF_smoYufTgFCP2HE-64" edge="1">
                    <mxGeometry relative="1" as="geometry"/>
                </mxCell>
                <mxCell id="HzceF_smoYufTgFCP2HE-54" value="PMO vergleicht Projektplan mit Projektfortschritt" style="whiteSpace=wrap;html=1;rounded=1;verticalAlign=top;strokeWidth=3;fillColor=#FCFCFC;labelBackgroundColor=#050505;spacingTop=8;" parent="WIyWlLk6GJQsqaUBKTNV-1" vertex="1">
                    <mxGeometry x="390" y="772.5" width="122.51" height="65" as="geometry"/>
                </mxCell>
                <mxCell id="HzceF_smoYufTgFCP2HE-57" value="&lt;div&gt;[wenig Fehler &lt;br&gt;&lt;/div&gt;&lt;div&gt;vorhanden]&lt;/div&gt;" style="edgeLabel;html=1;align=center;verticalAlign=middle;resizable=0;points=[];labelBackgroundColor=#050505;" parent="WIyWlLk6GJQsqaUBKTNV-1" vertex="1" connectable="0">
                    <mxGeometry x="690.0016666666667" y="860" as="geometry"/>
                </mxCell>
                <mxCell id="HzceF_smoYufTgFCP2HE-58" value="&lt;div&gt;[kein Fehler &lt;br&gt;&lt;/div&gt;&lt;div&gt;vorhanden]&lt;/div&gt;" style="edgeLabel;html=1;align=center;verticalAlign=middle;resizable=0;points=[];labelBackgroundColor=#050505;" parent="WIyWlLk6GJQsqaUBKTNV-1" vertex="1" connectable="0">
                    <mxGeometry x="740.0016666666667" y="780" as="geometry"/>
                </mxCell>
                <mxCell id="HzceF_smoYufTgFCP2HE-62" value="" style="edgeStyle=orthogonalEdgeStyle;rounded=0;orthogonalLoop=1;jettySize=auto;html=1;labelBackgroundColor=#050505;" parent="WIyWlLk6GJQsqaUBKTNV-1" source="HzceF_smoYufTgFCP2HE-59" target="HzceF_smoYufTgFCP2HE-61" edge="1">
                    <mxGeometry relative="1" as="geometry"/>
                </mxCell>
                <mxCell id="HzceF_smoYufTgFCP2HE-59" value="Software Architekt 端berarbeitet FK ohne Review widerholung" style="whiteSpace=wrap;html=1;rounded=1;verticalAlign=top;strokeWidth=3;fillColor=#FCFCFC;labelBackgroundColor=#050505;spacingTop=8;" parent="WIyWlLk6GJQsqaUBKTNV-1" vertex="1">
                    <mxGeometry x="586.25" y="880" width="122.5" height="65" as="geometry"/>
                </mxCell>
                <mxCell id="HzceF_smoYufTgFCP2HE-70" value="" style="edgeStyle=orthogonalEdgeStyle;rounded=0;orthogonalLoop=1;jettySize=auto;html=1;labelBackgroundColor=#050505;" parent="WIyWlLk6GJQsqaUBKTNV-1" source="HzceF_smoYufTgFCP2HE-61" target="HzceF_smoYufTgFCP2HE-69" edge="1">
                    <mxGeometry relative="1" as="geometry"/>
                </mxCell>
                <mxCell id="HzceF_smoYufTgFCP2HE-61" value="" style="rhombus;whiteSpace=wrap;html=1;rounded=0;verticalAlign=top;strokeWidth=3;fillColor=#FCFCFC;labelBackgroundColor=#050505;spacingTop=8;" parent="WIyWlLk6GJQsqaUBKTNV-1" vertex="1">
                    <mxGeometry x="607.5" y="980" width="80" height="80" as="geometry"/>
                </mxCell>
                <mxCell id="HzceF_smoYufTgFCP2HE-67" value="" style="edgeStyle=orthogonalEdgeStyle;rounded=0;orthogonalLoop=1;jettySize=auto;html=1;labelBackgroundColor=#050505;" parent="WIyWlLk6GJQsqaUBKTNV-1" source="HzceF_smoYufTgFCP2HE-64" target="HzceF_smoYufTgFCP2HE-66" edge="1">
                    <mxGeometry relative="1" as="geometry"/>
                </mxCell>
                <mxCell id="HzceF_smoYufTgFCP2HE-75" value="" style="edgeStyle=orthogonalEdgeStyle;rounded=0;orthogonalLoop=1;jettySize=auto;html=1;labelBackgroundColor=#050505;" parent="WIyWlLk6GJQsqaUBKTNV-1" source="HzceF_smoYufTgFCP2HE-64" target="HzceF_smoYufTgFCP2HE-74" edge="1">
                    <mxGeometry relative="1" as="geometry"/>
                </mxCell>
                <mxCell id="HzceF_smoYufTgFCP2HE-64" value="" style="rhombus;whiteSpace=wrap;html=1;rounded=0;verticalAlign=top;strokeWidth=3;fillColor=#FCFCFC;labelBackgroundColor=#050505;spacingTop=8;" parent="WIyWlLk6GJQsqaUBKTNV-1" vertex="1">
                    <mxGeometry x="265.005" y="765" width="80" height="80" as="geometry"/>
                </mxCell>
                <mxCell id="HzceF_smoYufTgFCP2HE-72" value="" style="edgeStyle=orthogonalEdgeStyle;rounded=0;orthogonalLoop=1;jettySize=auto;html=1;entryX=0;entryY=0.5;entryDx=0;entryDy=0;exitX=0.5;exitY=1;exitDx=0;exitDy=0;labelBackgroundColor=#050505;" parent="WIyWlLk6GJQsqaUBKTNV-1" source="HzceF_smoYufTgFCP2HE-66" target="HzceF_smoYufTgFCP2HE-71" edge="1">
                    <mxGeometry relative="1" as="geometry"/>
                </mxCell>
                <mxCell id="HzceF_smoYufTgFCP2HE-66" value="unter Vorbehalt abgenommen" style="whiteSpace=wrap;html=1;rounded=1;verticalAlign=top;strokeWidth=3;fillColor=#FCFCFC;labelBackgroundColor=#050505;spacingTop=8;" parent="WIyWlLk6GJQsqaUBKTNV-1" vertex="1">
                    <mxGeometry x="244.995" y="1100" width="120" height="60" as="geometry"/>
                </mxCell>
                <mxCell id="HzceF_smoYufTgFCP2HE-68" value="&lt;div&gt;[Zeitproblem &lt;br&gt;&lt;/div&gt;&lt;div&gt;vorhanden]&lt;/div&gt;" style="text;html=1;align=center;verticalAlign=middle;resizable=0;points=[];autosize=1;strokeColor=none;fillColor=none;labelBackgroundColor=#050505;" parent="WIyWlLk6GJQsqaUBKTNV-1" vertex="1">
                    <mxGeometry x="300" y="850" width="80" height="30" as="geometry"/>
                </mxCell>
                <mxCell id="HzceF_smoYufTgFCP2HE-73" style="edgeStyle=orthogonalEdgeStyle;rounded=0;orthogonalLoop=1;jettySize=auto;html=1;entryX=1;entryY=0.5;entryDx=0;entryDy=0;exitX=0.5;exitY=1;exitDx=0;exitDy=0;labelBackgroundColor=#050505;" parent="WIyWlLk6GJQsqaUBKTNV-1" source="HzceF_smoYufTgFCP2HE-69" target="HzceF_smoYufTgFCP2HE-71" edge="1">
                    <mxGeometry relative="1" as="geometry"/>
                </mxCell>
                <mxCell id="HzceF_smoYufTgFCP2HE-69" value="&lt;div&gt;vollst辰ndich abgenommen&lt;/div&gt;&lt;div&gt;PMO bereitet vor&lt;br&gt;&lt;/div&gt;" style="whiteSpace=wrap;html=1;rounded=1;verticalAlign=top;strokeWidth=3;fillColor=#FCFCFC;labelBackgroundColor=#050505;spacingTop=8;" parent="WIyWlLk6GJQsqaUBKTNV-1" vertex="1">
                    <mxGeometry x="587.49" y="1100" width="120" height="70" as="geometry"/>
                </mxCell>
                <mxCell id="HzceF_smoYufTgFCP2HE-78" value="" style="edgeStyle=orthogonalEdgeStyle;rounded=0;orthogonalLoop=1;jettySize=auto;html=1;labelBackgroundColor=#050505;" parent="WIyWlLk6GJQsqaUBKTNV-1" source="HzceF_smoYufTgFCP2HE-71" target="HzceF_smoYufTgFCP2HE-77" edge="1">
                    <mxGeometry relative="1" as="geometry"/>
                </mxCell>
                <mxCell id="HzceF_smoYufTgFCP2HE-71" value="" style="rhombus;whiteSpace=wrap;html=1;rounded=0;verticalAlign=top;strokeWidth=3;fillColor=#FCFCFC;labelBackgroundColor=#050505;spacingTop=8;" parent="WIyWlLk6GJQsqaUBKTNV-1" vertex="1">
                    <mxGeometry x="450.005" y="1230" width="80" height="80" as="geometry"/>
                </mxCell>
                <mxCell id="HzceF_smoYufTgFCP2HE-76" style="edgeStyle=orthogonalEdgeStyle;rounded=0;orthogonalLoop=1;jettySize=auto;html=1;entryX=0.5;entryY=1;entryDx=0;entryDy=0;entryPerimeter=0;labelBackgroundColor=#050505;" parent="WIyWlLk6GJQsqaUBKTNV-1" source="HzceF_smoYufTgFCP2HE-74" target="HzceF_smoYufTgFCP2HE-7" edge="1">
                    <mxGeometry relative="1" as="geometry"/>
                </mxCell>
                <mxCell id="HzceF_smoYufTgFCP2HE-74" value="Software Architekt 端berarbeitet FK" style="whiteSpace=wrap;html=1;rounded=1;verticalAlign=top;strokeWidth=3;fillColor=#FCFCFC;labelBackgroundColor=#050505;spacingTop=8;" parent="WIyWlLk6GJQsqaUBKTNV-1" vertex="1">
                    <mxGeometry x="85.005" y="775" width="120" height="60" as="geometry"/>
                </mxCell>
                <mxCell id="HzceF_smoYufTgFCP2HE-77" value="PMO 端bergibt Letter of Acceptance an Stakeholder" style="whiteSpace=wrap;html=1;rounded=1;verticalAlign=top;strokeWidth=3;fillColor=#FCFCFC;labelBackgroundColor=#050505;spacingTop=8;" parent="WIyWlLk6GJQsqaUBKTNV-1" vertex="1">
                    <mxGeometry x="430.01" y="1350" width="120" height="70" as="geometry"/>
                </mxCell>
                <mxCell id="HzceF_smoYufTgFCP2HE-79" value="" style="line;strokeWidth=5;direction=south;html=1;rounded=1;fillColor=#FCFCFC;rotation=90;labelBackgroundColor=#050505;" parent="WIyWlLk6GJQsqaUBKTNV-1" vertex="1">
                    <mxGeometry x="475.01" y="1330" width="10" height="265" as="geometry"/>
                </mxCell>
                <mxCell id="HzceF_smoYufTgFCP2HE-82" value="" style="endArrow=classic;html=1;rounded=0;exitX=0.5;exitY=1;exitDx=0;exitDy=0;entryX=0.462;entryY=0.45;entryDx=0;entryDy=0;entryPerimeter=0;labelBackgroundColor=#050505;" parent="WIyWlLk6GJQsqaUBKTNV-1" source="HzceF_smoYufTgFCP2HE-77" target="HzceF_smoYufTgFCP2HE-79" edge="1">
                    <mxGeometry width="50" height="50" relative="1" as="geometry">
                        <mxPoint x="460" y="1600" as="sourcePoint"/>
                        <mxPoint x="510" y="1550" as="targetPoint"/>
                    </mxGeometry>
                </mxCell>
                <mxCell id="HzceF_smoYufTgFCP2HE-89" style="edgeStyle=orthogonalEdgeStyle;rounded=0;orthogonalLoop=1;jettySize=auto;html=1;entryX=0.75;entryY=0.5;entryDx=0;entryDy=0;entryPerimeter=0;labelBackgroundColor=#050505;" parent="WIyWlLk6GJQsqaUBKTNV-1" source="HzceF_smoYufTgFCP2HE-84" target="HzceF_smoYufTgFCP2HE-88" edge="1">
                    <mxGeometry relative="1" as="geometry"/>
                </mxCell>
                <mxCell id="HzceF_smoYufTgFCP2HE-84" value="Kunde Unterschreibt" style="whiteSpace=wrap;html=1;rounded=1;verticalAlign=top;strokeWidth=3;fillColor=#FCFCFC;labelBackgroundColor=#050505;spacingTop=8;" parent="WIyWlLk6GJQsqaUBKTNV-1" vertex="1">
                    <mxGeometry x="354" y="1510" width="119.99" height="40" as="geometry"/>
                </mxCell>
                <mxCell id="HzceF_smoYufTgFCP2HE-90" style="edgeStyle=orthogonalEdgeStyle;rounded=0;orthogonalLoop=1;jettySize=auto;html=1;entryX=0.25;entryY=0.5;entryDx=0;entryDy=0;entryPerimeter=0;labelBackgroundColor=#050505;" parent="WIyWlLk6GJQsqaUBKTNV-1" source="HzceF_smoYufTgFCP2HE-85" target="HzceF_smoYufTgFCP2HE-88" edge="1">
                    <mxGeometry relative="1" as="geometry"/>
                </mxCell>
                <mxCell id="HzceF_smoYufTgFCP2HE-85" value="Stackholder unterschreiben" style="whiteSpace=wrap;html=1;rounded=1;verticalAlign=top;strokeWidth=3;fillColor=#FCFCFC;labelBackgroundColor=#050505;spacingTop=8;" parent="WIyWlLk6GJQsqaUBKTNV-1" vertex="1">
                    <mxGeometry x="498.13" y="1505" width="90" height="50" as="geometry"/>
                </mxCell>
                <mxCell id="HzceF_smoYufTgFCP2HE-86" value="" style="endArrow=classic;html=1;rounded=0;exitX=0.75;exitY=0.5;exitDx=0;exitDy=0;exitPerimeter=0;entryX=0.5;entryY=0;entryDx=0;entryDy=0;labelBackgroundColor=#050505;" parent="WIyWlLk6GJQsqaUBKTNV-1" source="HzceF_smoYufTgFCP2HE-79" target="HzceF_smoYufTgFCP2HE-84" edge="1">
                    <mxGeometry width="50" height="50" relative="1" as="geometry">
                        <mxPoint x="460" y="1580" as="sourcePoint"/>
                        <mxPoint x="510" y="1530" as="targetPoint"/>
                    </mxGeometry>
                </mxCell>
                <mxCell id="HzceF_smoYufTgFCP2HE-87" value="" style="endArrow=classic;html=1;rounded=0;exitX=0.25;exitY=0.5;exitDx=0;exitDy=0;exitPerimeter=0;entryX=0.536;entryY=0.017;entryDx=0;entryDy=0;entryPerimeter=0;labelBackgroundColor=#050505;" parent="WIyWlLk6GJQsqaUBKTNV-1" source="HzceF_smoYufTgFCP2HE-79" target="HzceF_smoYufTgFCP2HE-85" edge="1">
                    <mxGeometry width="50" height="50" relative="1" as="geometry">
                        <mxPoint x="460" y="1580" as="sourcePoint"/>
                        <mxPoint x="510" y="1530" as="targetPoint"/>
                    </mxGeometry>
                </mxCell>
                <mxCell id="HzceF_smoYufTgFCP2HE-92" value="" style="edgeStyle=orthogonalEdgeStyle;rounded=0;orthogonalLoop=1;jettySize=auto;html=1;labelBackgroundColor=#050505;" parent="WIyWlLk6GJQsqaUBKTNV-1" source="HzceF_smoYufTgFCP2HE-88" target="HzceF_smoYufTgFCP2HE-91" edge="1">
                    <mxGeometry relative="1" as="geometry"/>
                </mxCell>
                <mxCell id="HzceF_smoYufTgFCP2HE-88" value="" style="line;strokeWidth=5;direction=south;html=1;rounded=1;fillColor=#FCFCFC;rotation=90;labelBackgroundColor=#050505;" parent="WIyWlLk6GJQsqaUBKTNV-1" vertex="1">
                    <mxGeometry x="475.01" y="1460" width="10" height="265" as="geometry"/>
                </mxCell>
                <mxCell id="HzceF_smoYufTgFCP2HE-94" style="edgeStyle=orthogonalEdgeStyle;rounded=0;orthogonalLoop=1;jettySize=auto;html=1;entryX=0.5;entryY=0;entryDx=0;entryDy=0;entryPerimeter=0;labelBackgroundColor=#050505;" parent="WIyWlLk6GJQsqaUBKTNV-1" source="HzceF_smoYufTgFCP2HE-91" target="HzceF_smoYufTgFCP2HE-93" edge="1">
                    <mxGeometry relative="1" as="geometry"/>
                </mxCell>
                <mxCell id="HzceF_smoYufTgFCP2HE-91" value="PMO leitet &quot;Implementierung&quot; ein" style="whiteSpace=wrap;html=1;rounded=1;verticalAlign=top;strokeWidth=5;fillColor=#FCFCFC;labelBackgroundColor=#050505;spacingTop=8;" parent="WIyWlLk6GJQsqaUBKTNV-1" vertex="1">
                    <mxGeometry x="415.01" y="1640" width="129.99" height="60" as="geometry"/>
                </mxCell>
                <mxCell id="HzceF_smoYufTgFCP2HE-93" value="" style="strokeWidth=2;html=1;shape=mxgraph.flowchart.start_2;whiteSpace=wrap;rounded=1;fillColor=#030303;gradientDirection=radial;labelBackgroundColor=#050505;" parent="WIyWlLk6GJQsqaUBKTNV-1" vertex="1">
                    <mxGeometry x="430.01" y="1740" width="100" height="100" as="geometry"/>
                </mxCell>
                <mxCell id="HzceF_smoYufTgFCP2HE-95" value="" style="strokeWidth=4;html=1;shape=mxgraph.flowchart.start_2;whiteSpace=wrap;rounded=1;fillColor=none;gradientColor=none;gradientDirection=radial;strokeColor=#F7F7F7;labelBackgroundColor=#050505;" parent="WIyWlLk6GJQsqaUBKTNV-1" vertex="1">
                    <mxGeometry x="433.76" y="1745" width="92.49" height="90" as="geometry"/>
                </mxCell>
            </root>
        </mxGraphModel>
    </diagram>
</mxfile>